<svg width="616" height="760" viewBox="0 0 616 760" fill="none" xmlns="http://www.w3.org/2000/svg">
<path opacity="0.2" d="M154.453 684.036H460.124V573.674C460.124 531.917 445.119 496.412 415.109 467.158C385.1 437.905 349.146 423.278 307.249 423.278C265.352 423.278 229.411 437.905 199.428 467.158C169.445 496.412 154.453 531.917 154.453 573.674V684.036ZM307.329 336.622C349.226 336.622 385.167 321.844 415.15 292.289C445.133 262.734 460.124 227.077 460.124 185.321V75.8639L154.453 75.8639V185.321C154.453 227.077 169.458 262.734 199.469 292.289C229.478 321.844 265.431 336.622 307.329 336.622ZM0 759.389L0 684.036H79.0201V573.885C79.0201 532.257 90.0347 494.209 112.064 459.74C134.093 425.27 163.851 398.673 201.337 379.95C163.851 361.227 134.093 334.535 112.064 299.873C90.0347 265.211 79.0201 226.956 79.0201 185.11V75.8639H0L0 0L615.09 0V75.8639H536.07V185.11C536.07 226.956 525.055 265.211 503.026 299.873C480.997 334.535 451.24 361.227 413.753 379.95C451.24 398.673 480.997 425.27 503.026 459.74C525.055 494.209 536.07 532.257 536.07 573.885V684.036H615.09V759.389H0Z" fill="#7FE7BA"/>
</svg>
