<svg width="481" height="593" viewBox="0 0 481 593" fill="none" xmlns="http://www.w3.org/2000/svg">
<path d="M120.782 534.158H359.817V447.977C359.817 415.369 348.083 387.644 324.615 364.8C301.148 341.956 273.032 330.535 240.268 330.535C207.505 330.535 179.399 341.956 155.952 364.8C132.506 387.644 120.782 415.369 120.782 447.977V534.158ZM240.331 262.865C273.095 262.865 301.2 251.325 324.647 228.246C348.094 205.166 359.817 177.323 359.817 144.715V59.2415L120.782 59.2415V144.715C120.782 177.323 132.516 205.166 155.984 228.246C179.452 251.325 207.567 262.865 240.331 262.865ZM0 593L0 534.158H61.7937V448.142C61.7937 415.635 70.4071 385.923 87.6339 359.007C104.861 332.09 128.131 311.321 157.445 296.7C128.131 282.079 104.861 261.235 87.6339 234.168C70.4071 207.101 61.7937 177.228 61.7937 144.551L61.7937 59.2415H0L0 0L481 0V59.2415H419.206V144.551C419.206 177.228 410.593 207.101 393.366 234.168C376.139 261.235 352.869 282.079 323.555 296.7C352.869 311.321 376.139 332.09 393.366 359.007C410.593 385.923 419.206 415.635 419.206 448.142V534.158H481V593H0Z" fill="#333333"/>
</svg>
